<mxfile host="app.diagrams.net" modified="2022-05-01T18:03:19.608Z" agent="5.0 (Windows NT 10.0; Win64; x64) AppleWebKit/537.36 (KHTML, like Gecko) Chrome/100.0.4896.88 Safari/537.36" etag="voSi1Qdy-Q_MHyfY_gl_" version="17.4.0" type="github">
  <diagram id="prtHgNgQTEPvFCAcTncT" name="Page-1">
    <mxGraphModel dx="2062" dy="1122" grid="1" gridSize="10" guides="1" tooltips="1" connect="1" arrows="1" fold="1" page="1" pageScale="1" pageWidth="827" pageHeight="1169" math="0" shadow="0">
      <root>
        <mxCell id="0" />
        <mxCell id="1" parent="0" />
        <mxCell id="dNxyNK7c78bLwvsdeMH5-11" value="Site-Map" style="swimlane;html=1;startSize=20;horizontal=1;containerType=tree;glass=0;" parent="1" vertex="1">
          <mxGeometry x="40" y="80" width="750.5200000000003" height="880" as="geometry" />
        </mxCell>
        <mxCell id="O9_XByGZcDf_Zzd5b06f-2" value="splash.html" style="shape=note;whiteSpace=wrap;html=1;backgroundOutline=1;darkOpacity=0.05;" vertex="1" parent="dNxyNK7c78bLwvsdeMH5-11">
          <mxGeometry x="30" y="130" width="80" height="100" as="geometry" />
        </mxCell>
        <mxCell id="O9_XByGZcDf_Zzd5b06f-6" value="" style="edgeStyle=orthogonalEdgeStyle;rounded=0;orthogonalLoop=1;jettySize=auto;html=1;" edge="1" source="O9_XByGZcDf_Zzd5b06f-2" target="O9_XByGZcDf_Zzd5b06f-7" parent="dNxyNK7c78bLwvsdeMH5-11">
          <mxGeometry relative="1" as="geometry" />
        </mxCell>
        <mxCell id="O9_XByGZcDf_Zzd5b06f-7" value="index.html" style="shape=note;whiteSpace=wrap;html=1;backgroundOutline=1;darkOpacity=0.05;" vertex="1" parent="dNxyNK7c78bLwvsdeMH5-11">
          <mxGeometry x="30" y="270" width="80" height="100" as="geometry" />
        </mxCell>
        <mxCell id="O9_XByGZcDf_Zzd5b06f-8" value="" style="edgeStyle=orthogonalEdgeStyle;rounded=0;orthogonalLoop=1;jettySize=auto;html=1;" edge="1" target="O9_XByGZcDf_Zzd5b06f-9" source="O9_XByGZcDf_Zzd5b06f-7" parent="dNxyNK7c78bLwvsdeMH5-11">
          <mxGeometry relative="1" as="geometry">
            <mxPoint x="110" y="310" as="sourcePoint" />
          </mxGeometry>
        </mxCell>
        <mxCell id="O9_XByGZcDf_Zzd5b06f-9" value="faq.html" style="shape=note;whiteSpace=wrap;html=1;backgroundOutline=1;darkOpacity=0.05;" vertex="1" parent="dNxyNK7c78bLwvsdeMH5-11">
          <mxGeometry x="30" y="410" width="80" height="100" as="geometry" />
        </mxCell>
        <mxCell id="O9_XByGZcDf_Zzd5b06f-10" value="" style="edgeStyle=orthogonalEdgeStyle;rounded=0;orthogonalLoop=1;jettySize=auto;html=1;" edge="1" target="O9_XByGZcDf_Zzd5b06f-11" source="O9_XByGZcDf_Zzd5b06f-7" parent="dNxyNK7c78bLwvsdeMH5-11">
          <mxGeometry relative="1" as="geometry">
            <mxPoint x="110" y="310" as="sourcePoint" />
          </mxGeometry>
        </mxCell>
        <mxCell id="O9_XByGZcDf_Zzd5b06f-11" value="activity-packages.html" style="shape=note;whiteSpace=wrap;html=1;backgroundOutline=1;darkOpacity=0.05;" vertex="1" parent="dNxyNK7c78bLwvsdeMH5-11">
          <mxGeometry x="120" y="410" width="80" height="100" as="geometry" />
        </mxCell>
        <mxCell id="O9_XByGZcDf_Zzd5b06f-12" value="" style="edgeStyle=orthogonalEdgeStyle;rounded=0;orthogonalLoop=1;jettySize=auto;html=1;" edge="1" target="O9_XByGZcDf_Zzd5b06f-13" source="O9_XByGZcDf_Zzd5b06f-7" parent="dNxyNK7c78bLwvsdeMH5-11">
          <mxGeometry relative="1" as="geometry">
            <mxPoint x="110" y="310" as="sourcePoint" />
          </mxGeometry>
        </mxCell>
        <mxCell id="O9_XByGZcDf_Zzd5b06f-13" value="terms-and-conditions.html" style="shape=note;whiteSpace=wrap;html=1;backgroundOutline=1;darkOpacity=0.05;" vertex="1" parent="dNxyNK7c78bLwvsdeMH5-11">
          <mxGeometry x="210" y="410" width="80" height="100" as="geometry" />
        </mxCell>
        <mxCell id="O9_XByGZcDf_Zzd5b06f-14" value="" style="edgeStyle=orthogonalEdgeStyle;rounded=0;orthogonalLoop=1;jettySize=auto;html=1;" edge="1" target="O9_XByGZcDf_Zzd5b06f-15" source="O9_XByGZcDf_Zzd5b06f-11" parent="dNxyNK7c78bLwvsdeMH5-11">
          <mxGeometry relative="1" as="geometry">
            <mxPoint x="150" y="400" as="sourcePoint" />
          </mxGeometry>
        </mxCell>
        <mxCell id="O9_XByGZcDf_Zzd5b06f-15" value="formB.html" style="shape=note;whiteSpace=wrap;html=1;backgroundOutline=1;darkOpacity=0.05;" vertex="1" parent="dNxyNK7c78bLwvsdeMH5-11">
          <mxGeometry x="120" y="550" width="80" height="100" as="geometry" />
        </mxCell>
        <mxCell id="O9_XByGZcDf_Zzd5b06f-16" value="" style="edgeStyle=orthogonalEdgeStyle;rounded=0;orthogonalLoop=1;jettySize=auto;html=1;" edge="1" target="O9_XByGZcDf_Zzd5b06f-17" source="O9_XByGZcDf_Zzd5b06f-15" parent="dNxyNK7c78bLwvsdeMH5-11">
          <mxGeometry relative="1" as="geometry">
            <mxPoint x="200" y="590" as="sourcePoint" />
          </mxGeometry>
        </mxCell>
        <mxCell id="O9_XByGZcDf_Zzd5b06f-17" value="successful-process.html" style="shape=note;whiteSpace=wrap;html=1;backgroundOutline=1;darkOpacity=0.05;" vertex="1" parent="dNxyNK7c78bLwvsdeMH5-11">
          <mxGeometry x="120" y="690" width="80" height="100" as="geometry" />
        </mxCell>
        <mxCell id="O9_XByGZcDf_Zzd5b06f-19" style="edgeStyle=orthogonalEdgeStyle;rounded=0;orthogonalLoop=1;jettySize=auto;html=1;entryX=0.5;entryY=0;entryDx=0;entryDy=0;entryPerimeter=0;" edge="1" parent="dNxyNK7c78bLwvsdeMH5-11" source="O9_XByGZcDf_Zzd5b06f-18" target="O9_XByGZcDf_Zzd5b06f-2">
          <mxGeometry relative="1" as="geometry" />
        </mxCell>
        <mxCell id="O9_XByGZcDf_Zzd5b06f-18" value=".rootSSotM" style="sketch=0;pointerEvents=1;shadow=0;dashed=0;html=1;strokeColor=none;fillColor=#434445;aspect=fixed;labelPosition=center;verticalLabelPosition=bottom;verticalAlign=top;align=center;outlineConnect=0;shape=mxgraph.vvd.folder;" vertex="1" parent="dNxyNK7c78bLwvsdeMH5-11">
          <mxGeometry x="43.69" y="40" width="52.63" height="40" as="geometry" />
        </mxCell>
        <mxCell id="O9_XByGZcDf_Zzd5b06f-20" value="" style="edgeStyle=orthogonalEdgeStyle;rounded=0;orthogonalLoop=1;jettySize=auto;html=1;" edge="1" source="O9_XByGZcDf_Zzd5b06f-18" target="O9_XByGZcDf_Zzd5b06f-21" parent="dNxyNK7c78bLwvsdeMH5-11">
          <mxGeometry relative="1" as="geometry" />
        </mxCell>
        <mxCell id="O9_XByGZcDf_Zzd5b06f-21" value="css" style="sketch=0;pointerEvents=1;shadow=0;dashed=0;html=1;strokeColor=none;fillColor=#434445;aspect=fixed;labelPosition=center;verticalLabelPosition=bottom;verticalAlign=top;align=center;outlineConnect=0;shape=mxgraph.vvd.folder;" vertex="1" parent="dNxyNK7c78bLwvsdeMH5-11">
          <mxGeometry x="210" y="120" width="52.63" height="40" as="geometry" />
        </mxCell>
        <mxCell id="O9_XByGZcDf_Zzd5b06f-22" value="" style="edgeStyle=orthogonalEdgeStyle;rounded=0;orthogonalLoop=1;jettySize=auto;html=1;" edge="1" source="O9_XByGZcDf_Zzd5b06f-18" target="O9_XByGZcDf_Zzd5b06f-23" parent="dNxyNK7c78bLwvsdeMH5-11">
          <mxGeometry relative="1" as="geometry" />
        </mxCell>
        <mxCell id="O9_XByGZcDf_Zzd5b06f-23" value="images" style="sketch=0;pointerEvents=1;shadow=0;dashed=0;html=1;strokeColor=none;fillColor=#434445;aspect=fixed;labelPosition=center;verticalLabelPosition=bottom;verticalAlign=top;align=center;outlineConnect=0;shape=mxgraph.vvd.folder;" vertex="1" parent="dNxyNK7c78bLwvsdeMH5-11">
          <mxGeometry x="272.6300000000001" y="120" width="52.63" height="40" as="geometry" />
        </mxCell>
        <mxCell id="O9_XByGZcDf_Zzd5b06f-24" value="" style="edgeStyle=orthogonalEdgeStyle;rounded=0;orthogonalLoop=1;jettySize=auto;html=1;" edge="1" source="O9_XByGZcDf_Zzd5b06f-18" target="O9_XByGZcDf_Zzd5b06f-25" parent="dNxyNK7c78bLwvsdeMH5-11">
          <mxGeometry relative="1" as="geometry" />
        </mxCell>
        <mxCell id="O9_XByGZcDf_Zzd5b06f-25" value="fr" style="sketch=0;pointerEvents=1;shadow=0;dashed=0;html=1;strokeColor=none;fillColor=#434445;aspect=fixed;labelPosition=center;verticalLabelPosition=bottom;verticalAlign=top;align=center;outlineConnect=0;shape=mxgraph.vvd.folder;" vertex="1" parent="dNxyNK7c78bLwvsdeMH5-11">
          <mxGeometry x="335.2600000000002" y="120" width="52.63" height="40" as="geometry" />
        </mxCell>
        <mxCell id="O9_XByGZcDf_Zzd5b06f-28" value="" style="edgeStyle=orthogonalEdgeStyle;rounded=0;orthogonalLoop=1;jettySize=auto;html=1;" edge="1" source="O9_XByGZcDf_Zzd5b06f-18" target="O9_XByGZcDf_Zzd5b06f-29" parent="dNxyNK7c78bLwvsdeMH5-11">
          <mxGeometry relative="1" as="geometry" />
        </mxCell>
        <mxCell id="O9_XByGZcDf_Zzd5b06f-29" value="scss" style="sketch=0;pointerEvents=1;shadow=0;dashed=0;html=1;strokeColor=none;fillColor=#434445;aspect=fixed;labelPosition=center;verticalLabelPosition=bottom;verticalAlign=top;align=center;outlineConnect=0;shape=mxgraph.vvd.folder;" vertex="1" parent="dNxyNK7c78bLwvsdeMH5-11">
          <mxGeometry x="397.8900000000003" y="120" width="52.63" height="40" as="geometry" />
        </mxCell>
        <mxCell id="O9_XByGZcDf_Zzd5b06f-34" value="" style="edgeStyle=orthogonalEdgeStyle;rounded=0;orthogonalLoop=1;jettySize=auto;html=1;" edge="1" source="O9_XByGZcDf_Zzd5b06f-18" target="O9_XByGZcDf_Zzd5b06f-35" parent="dNxyNK7c78bLwvsdeMH5-11">
          <mxGeometry relative="1" as="geometry" />
        </mxCell>
        <mxCell id="O9_XByGZcDf_Zzd5b06f-35" value="videos" style="sketch=0;pointerEvents=1;shadow=0;dashed=0;html=1;strokeColor=none;fillColor=#434445;aspect=fixed;labelPosition=center;verticalLabelPosition=bottom;verticalAlign=top;align=center;outlineConnect=0;shape=mxgraph.vvd.folder;" vertex="1" parent="dNxyNK7c78bLwvsdeMH5-11">
          <mxGeometry x="460.52000000000044" y="120" width="52.63" height="40" as="geometry" />
        </mxCell>
      </root>
    </mxGraphModel>
  </diagram>
</mxfile>
